<?xml version="1.0" encoding="UTF-8"?>
<svg width="295px" height="97px" viewBox="0 0 295 97" version="1.1" xmlns="http://www.w3.org/2000/svg" xmlns:xlink="http://www.w3.org/1999/xlink">
    <!-- Generator: Sketch 46.1 (44463) - http://www.bohemiancoding.com/sketch -->
    <title>Group 16</title>
    <desc>Created with Sketch.</desc>
    <defs>
        <linearGradient x1="50%" y1="0%" x2="50%" y2="100%" id="linearGradient-1">
            <stop stop-color="#FF0070" offset="0%"></stop>
            <stop stop-color="#FF003D" offset="100%"></stop>
        </linearGradient>
        <polygon id="path-2" points="220.757952 79.9472827 220.757952 0 0 0 0 39.9736414 0 79.9472827 220.757952 79.9472827"></polygon>
        <linearGradient x1="50%" y1="0%" x2="50%" y2="100%" id="linearGradient-4">
            <stop stop-color="#FF8B64" offset="0%"></stop>
            <stop stop-color="#FF5334" offset="100%"></stop>
        </linearGradient>
    </defs>
    <g id="Page-1" stroke="none" stroke-width="1" fill="none" fill-rule="evenodd">
        <g id="Group-16">
            <g id="Page-1" transform="translate(74.000000, 0.000000)" fill="url(#linearGradient-1)">
                <path d="M215.800737,77.57995 C219.41742,77.53895 221.788785,73.81145 220.313447,70.51695 C210.74129,49.14845 188.961014,35.99995 163.620181,35.99995 C161.531456,35.99995 159.467286,36.10445 157.43168,36.30645 C154.535127,15.78795 136.875673,-5e-05 115.511338,-5e-05 C102.627188,-5e-05 91.0950975,5.74845 83.3285261,14.80695 C76.6484127,12.34595 69.4270748,10.99995 61.8900227,10.99995 C27.7091905,10.99995 0,38.64645 0,72.74995 C0,73.54645 0.0155351474,74.33895 0.0461043084,75.12745 C0.151342404,77.83895 2.39491837,79.97795 5.11507256,79.94695 L215.800737,77.57995 Z" id="Fill-1"></path>
            </g>
            <g id="Page-1" transform="translate(0.000000, 17.000000)">
                <mask id="mask-3" fill="white">
                    <use xlink:href="#path-2"></use>
                </mask>
                <g id="Clip-2"></g>
                <path d="M215.800737,77.57995 C219.41742,77.53895 221.788785,73.81145 220.313447,70.51695 C210.74129,49.14845 188.961014,35.99995 163.620181,35.99995 C161.531456,35.99995 159.467286,36.10445 157.43168,36.30645 C154.535127,15.78795 136.875673,-5e-05 115.511338,-5e-05 C102.627188,-5e-05 91.0950975,5.74845 83.3285261,14.80695 C76.6484127,12.34595 69.4270748,10.99995 61.8900227,10.99995 C27.7091905,10.99995 0,38.64645 0,72.74995 C0,73.54645 0.0155351474,74.33895 0.0461043084,75.12745 C0.151342404,77.83895 2.39491837,79.97795 5.11507256,79.94695 L215.800737,77.57995 Z" id="Fill-1" fill="url(#linearGradient-4)" mask="url(#mask-3)"></path>
            </g>
        </g>
    </g>
</svg>