<?xml version="1.0" encoding="UTF-8"?>
<svg width="50px" height="50px" viewBox="0 0 50 50" version="1.1" xmlns="http://www.w3.org/2000/svg" xmlns:xlink="http://www.w3.org/1999/xlink">
    <!-- Generator: Sketch 40.1 (33804) - http://www.bohemiancoding.com/sketch -->
    <title>Crew</title>
    <desc>Created with Sketch.</desc>
    <defs></defs>
    <g id="Page-1" stroke="none" stroke-width="1" fill="none" fill-rule="evenodd">
        <g id="Crew">
            <circle id="Oval-2" fill-opacity="0.5" fill="#24B47E" cx="25" cy="25" r="25"></circle>
            <g id="Page-1" transform="translate(13.157895, 15.789474)" stroke="#659784" stroke-width="1.06105263">
                <path d="M4.89457895,9.63873684 L4.89457895,11.4150526 L1.36457895,12.7287368 C0.546684211,13.0224211 -0.000157894736,13.8003158 -0.000157894736,14.6718947 L-0.000157894736,15.6724211 C-0.000157894736,16.1834737 0.414052632,16.5976842 0.925631579,16.5976842 L5.17036842,16.5976842" id="Stroke-1"></path>
                <polyline id="Stroke-3" points="8.89878947 11.8235263 8.15773684 11.4151053 8.15773684 9.613"></polyline>
                <path d="M19.6846842,5.11073684 C19.6846842,7.93389474 17.7836316,10.2223158 15.4373158,10.2223158 C13.0920526,10.2223158 11.191,7.93389474 11.191,5.11073684 C11.191,2.28863158 13.0920526,0.000210526316 15.4373158,0.000210526316 C17.7836316,0.000210526316 19.6846842,2.28863158 19.6846842,5.11073684 L19.6846842,5.11073684 Z" id="Stroke-5"></path>
                <path d="M17.4313158,9.62315789 L17.4313158,11.8236842 L21.8034211,13.45 C22.8165789,13.8142105 23.4939474,14.7773684 23.4939474,15.8568421 L23.4939474,17.3168421 C23.4939474,17.8284211 23.0792105,18.2426316 22.5681579,18.2426316 L8.30447368,18.2426316 C7.79342105,18.2426316 7.37868421,17.8284211 7.37868421,17.3168421 L7.37868421,15.8568421 C7.37868421,14.7773684 8.05605263,13.8142105 9.06921053,13.45 L13.4413158,11.8236842 L13.4413158,9.62315789" id="Stroke-7"></path>
                <path d="M17.4832632,11.8235263 L17.4832632,9.59142105" id="Stroke-9"></path>
                <path d="M11.4365789,3.48742105 C12.0786842,4.09531579 12.9455263,4.46794737 13.8997368,4.46794737 C15.0718421,4.46794737 16.1113158,3.90531579 16.7655263,3.03531579 C16.8176316,2.96531579 17.0007895,2.969 17.0476316,3.04110526 C17.6860526,4.02636842 18.4228947,4.67847368 19.6844737,4.67847368" id="Stroke-11"></path>
                <path d="M8.851,2.98484211 C8.261,2.54642105 8.56363158,1.67747368 8.56363158,1.67747368 L7.80310526,1.97536842 L8.11205263,0.811684211 C8.11205263,0.811684211 6.79626316,1.46536842 6.50626316,1.57431579 C6.21678947,1.68326316 5.16942105,2.02852632 4.431,2.71115789 C4.43047368,2.71168421 4.43047368,2.71221053 4.42994737,2.71273684 C3.60836842,3.46642105 3.07784211,4.65642105 3.07784211,5.99536842 C3.07784211,8.27484211 4.61257895,10.1227368 6.50626316,10.1227368 C8.40047368,10.1227368 9.93521053,8.27484211 9.93521053,5.99536842 C9.93521053,4.808 9.59626316,3.53852632 8.851,2.98484211 L8.851,2.98484211 Z" id="Stroke-13" stroke-linecap="round"></path>
            </g>
        </g>
    </g>
</svg>