<?xml version="1.0" encoding="UTF-8"?>
<svg width="50px" height="50px" viewBox="0 0 50 50" version="1.1" xmlns="http://www.w3.org/2000/svg" xmlns:xlink="http://www.w3.org/1999/xlink">
    <!-- Generator: Sketch 40.1 (33804) - http://www.bohemiancoding.com/sketch -->
    <title>Dates</title>
    <desc>Created with Sketch.</desc>
    <defs></defs>
    <g id="Page-1" stroke="none" stroke-width="1" fill="none" fill-rule="evenodd">
        <g id="Dates">
            <circle id="Oval-2" fill-opacity="0.5" fill="#24B47E" cx="25" cy="25" r="25"></circle>
            <g id="Page-1" transform="translate(13.157895, 11.842105)">
                <path d="M20.648335,26.1121857 L3.84992232,26.1121857 C1.73239446,26.1121857 -0.000128335022,24.3496132 -0.000128335022,22.1953578 L-0.000128335022,6.07956963 C-0.000128335022,3.92531431 1.73239446,2.16274178 3.84992232,2.16274178 L20.648335,2.16274178 C22.7658629,2.16274178 24.4983857,3.92531431 24.4983857,6.07956963 L24.4983857,22.1953578 C24.4983857,24.3496132 22.7658629,26.1121857 20.648335,26.1121857 L20.648335,26.1121857 Z" id="Stroke-1" stroke="#659784" stroke-width="1.27894737"></path>
                <path d="M0.147841945,6.31229449 L24.5314961,6.31229449" id="Stroke-3" stroke="#659784" stroke-width="1.27894737"></path>
                <path d="M4.19270517,4.36086557 L4.19270517,4.36086557 C3.92320162,4.36086557 3.70310706,4.13630077 3.70310706,3.86277563 L3.70310706,0.498220503 C3.70310706,0.224042553 3.92320162,0.000130560928 4.19270517,0.000130560928 L4.19270517,0.000130560928 C4.46220871,0.000130560928 4.68230328,0.224042553 4.68230328,0.498220503 L4.68230328,3.86277563 C4.68230328,4.13630077 4.46220871,4.36086557 4.19270517,4.36086557" id="Fill-5" fill="#659784"></path>
                <path d="M8.26047619,4.36086557 L8.26047619,4.36086557 C7.99097264,4.36086557 7.77087808,4.13630077 7.77087808,3.86277563 L7.77087808,0.498220503 C7.77087808,0.224042553 7.99097264,0.000130560928 8.26047619,0.000130560928 L8.26047619,0.000130560928 C8.52997974,0.000130560928 8.7500743,0.224042553 8.7500743,0.498220503 L8.7500743,3.86277563 C8.7500743,4.13630077 8.52997974,4.36086557 8.26047619,4.36086557" id="Fill-7" fill="#659784"></path>
                <path d="M12.3282472,4.36086557 L12.3282472,4.36086557 C12.0587437,4.36086557 11.8386491,4.13630077 11.8386491,3.86277563 L11.8386491,0.498220503 C11.8386491,0.224042553 12.0587437,0.000130560928 12.3282472,0.000130560928 L12.3282472,0.000130560928 C12.5977508,0.000130560928 12.8178453,0.224042553 12.8178453,0.498220503 L12.8178453,3.86277563 C12.8178453,4.13630077 12.5977508,4.36086557 12.3282472,4.36086557" id="Fill-9" fill="#659784"></path>
                <path d="M16.3960182,4.36086557 L16.3960182,4.36086557 C16.1265147,4.36086557 15.9064201,4.13630077 15.9064201,3.86277563 L15.9064201,0.498220503 C15.9064201,0.224042553 16.1265147,0.000130560928 16.3960182,0.000130560928 L16.3960182,0.000130560928 C16.6655218,0.000130560928 16.8856163,0.224042553 16.8856163,0.498220503 L16.8856163,3.86277563 C16.8856163,4.13630077 16.6655218,4.36086557 16.3960182,4.36086557" id="Fill-11" fill="#659784"></path>
                <path d="M20.4637893,4.36086557 L20.4637893,4.36086557 C20.1942857,4.36086557 19.9741912,4.13630077 19.9741912,3.86277563 L19.9741912,0.498220503 C19.9741912,0.224042553 20.1942857,0.000130560928 20.4637893,0.000130560928 L20.4637893,0.000130560928 C20.7332928,0.000130560928 20.9533874,0.224042553 20.9533874,0.498220503 L20.9533874,3.86277563 C20.9533874,4.13630077 20.7332928,4.36086557 20.4637893,4.36086557" id="Fill-13" fill="#659784"></path>
                <path d="M4.63302263,13.6985832 L3.86878757,13.6985832 C3.30411348,13.6985832 2.84659912,13.2331335 2.84659912,12.6586654 L2.84659912,12.1272824 C2.84659912,11.5528143 3.30411348,11.0873646 3.86878757,11.0873646 L4.63302263,11.0873646 C5.19769672,11.0873646 5.65521108,11.5528143 5.65521108,12.1272824 L5.65521108,12.6586654 C5.65521108,13.2331335 5.19769672,13.6985832 4.63302263,13.6985832" id="Fill-15" fill="#659784"></path>
                <path d="M8.67172577,13.6985832 L7.90749071,13.6985832 C7.34281662,13.6985832 6.88530226,13.2331335 6.88530226,12.6586654 L6.88530226,12.1272824 C6.88530226,11.5528143 7.34281662,11.0873646 7.90749071,11.0873646 L8.67172577,11.0873646 C9.23639986,11.0873646 9.69391422,11.5528143 9.69391422,12.1272824 L9.69391422,12.6586654 C9.69391422,13.2331335 9.23639986,13.6985832 8.67172577,13.6985832" id="Fill-17" fill="#659784"></path>
                <path d="M12.7104289,13.6985832 L11.9461939,13.6985832 C11.3815198,13.6985832 10.9240054,13.2331335 10.9240054,12.6586654 L10.9240054,12.1272824 C10.9240054,11.5528143 11.3815198,11.0873646 11.9461939,11.0873646 L12.7104289,11.0873646 C13.275103,11.0873646 13.7326174,11.5528143 13.7326174,12.1272824 L13.7326174,12.6586654 C13.7326174,13.2331335 13.275103,13.6985832 12.7104289,13.6985832" id="Fill-19" fill="#659784"></path>
                <path d="M16.7490679,13.6985832 L15.9848328,13.6985832 C15.4201587,13.6985832 14.9626444,13.2331335 14.9626444,12.6586654 L14.9626444,12.1272824 C14.9626444,11.5528143 15.4201587,11.0873646 15.9848328,11.0873646 L16.7490679,11.0873646 C17.313742,11.0873646 17.7712563,11.5528143 17.7712563,12.1272824 L17.7712563,12.6586654 C17.7712563,13.2331335 17.313742,13.6985832 16.7490679,13.6985832" id="Fill-21" fill="#659784"></path>
                <path d="M20.787771,13.6985832 L20.023536,13.6985832 C19.4588619,13.6985832 19.0013475,13.2331335 19.0013475,12.6586654 L19.0013475,12.1272824 C19.0013475,11.5528143 19.4588619,11.0873646 20.023536,11.0873646 L20.787771,11.0873646 C21.3524451,11.0873646 21.8099595,11.5528143 21.8099595,12.1272824 L21.8099595,12.6586654 C21.8099595,13.2331335 21.3524451,13.6985832 20.787771,13.6985832" id="Fill-23" fill="#659784"></path>
                <path d="M4.63302263,17.7479956 L3.86878757,17.7479956 C3.30411348,17.7479956 2.84659912,17.2825459 2.84659912,16.7080779 L2.84659912,16.1766949 C2.84659912,15.6022268 3.30411348,15.1367771 3.86878757,15.1367771 L4.63302263,15.1367771 C5.19769672,15.1367771 5.65521108,15.6022268 5.65521108,16.1766949 L5.65521108,16.7080779 C5.65521108,17.2825459 5.19769672,17.7479956 4.63302263,17.7479956" id="Fill-25" fill="#659784"></path>
                <path d="M8.67172577,17.7479956 L7.90749071,17.7479956 C7.34281662,17.7479956 6.88530226,17.2825459 6.88530226,16.7080779 L6.88530226,16.1766949 C6.88530226,15.6022268 7.34281662,15.1367771 7.90749071,15.1367771 L8.67172577,15.1367771 C9.23639986,15.1367771 9.69391422,15.6022268 9.69391422,16.1766949 L9.69391422,16.7080779 C9.69391422,17.2825459 9.23639986,17.7479956 8.67172577,17.7479956" id="Fill-27" fill="#659784"></path>
                <path d="M12.7104289,17.7479956 L11.9461939,17.7479956 C11.3815198,17.7479956 10.9240054,17.2825459 10.9240054,16.7080779 L10.9240054,16.1766949 C10.9240054,15.6022268 11.3815198,15.1367771 11.9461939,15.1367771 L12.7104289,15.1367771 C13.275103,15.1367771 13.7326174,15.6022268 13.7326174,16.1766949 L13.7326174,16.7080779 C13.7326174,17.2825459 13.275103,17.7479956 12.7104289,17.7479956" id="Fill-29" fill="#659784"></path>
                <path d="M16.7490679,17.7479956 L15.9848328,17.7479956 C15.4201587,17.7479956 14.9626444,17.2825459 14.9626444,16.7080779 L14.9626444,16.1766949 C14.9626444,15.6022268 15.4201587,15.1367771 15.9848328,15.1367771 L16.7490679,15.1367771 C17.313742,15.1367771 17.7712563,15.6022268 17.7712563,16.1766949 L17.7712563,16.7080779 C17.7712563,17.2825459 17.313742,17.7479956 16.7490679,17.7479956" id="Fill-31" fill="#659784"></path>
                <path d="M20.787771,17.7479956 L20.023536,17.7479956 C19.4588619,17.7479956 19.0013475,17.2825459 19.0013475,16.7080779 L19.0013475,16.1766949 C19.0013475,15.6022268 19.4588619,15.1367771 20.023536,15.1367771 L20.787771,15.1367771 C21.3524451,15.1367771 21.8099595,15.6022268 21.8099595,16.1766949 L21.8099595,16.7080779 C21.8099595,17.2825459 21.3524451,17.7479956 20.787771,17.7479956" id="Fill-33" fill="#659784"></path>
                <path d="M4.63302263,21.9219632 L3.86878757,21.9219632 C3.30411348,21.9219632 2.84659912,21.4565135 2.84659912,20.8820455 L2.84659912,20.3506625 C2.84659912,19.7761944 3.30411348,19.3107447 3.86878757,19.3107447 L4.63302263,19.3107447 C5.19769672,19.3107447 5.65521108,19.7761944 5.65521108,20.3506625 L5.65521108,20.8820455 C5.65521108,21.4565135 5.19769672,21.9219632 4.63302263,21.9219632" id="Fill-35" fill="#659784"></path>
                <path d="M8.67172577,21.9219632 L7.90749071,21.9219632 C7.34281662,21.9219632 6.88530226,21.4565135 6.88530226,20.8820455 L6.88530226,20.3506625 C6.88530226,19.7761944 7.34281662,19.3107447 7.90749071,19.3107447 L8.67172577,19.3107447 C9.23639986,19.3107447 9.69391422,19.7761944 9.69391422,20.3506625 L9.69391422,20.8820455 C9.69391422,21.4565135 9.23639986,21.9219632 8.67172577,21.9219632" id="Fill-37" fill="#659784"></path>
                <path d="M12.7104289,21.9219632 L11.9461939,21.9219632 C11.3815198,21.9219632 10.9240054,21.4565135 10.9240054,20.8820455 L10.9240054,20.3506625 C10.9240054,19.7761944 11.3815198,19.3107447 11.9461939,19.3107447 L12.7104289,19.3107447 C13.275103,19.3107447 13.7326174,19.7761944 13.7326174,20.3506625 L13.7326174,20.8820455 C13.7326174,21.4565135 13.275103,21.9219632 12.7104289,21.9219632" id="Fill-39" fill="#659784"></path>
            </g>
        </g>
    </g>
</svg>