<?xml version="1.0" encoding="UTF-8"?>
<svg width="60px" height="43px" viewBox="0 0 60 43" version="1.1" xmlns="http://www.w3.org/2000/svg" xmlns:xlink="http://www.w3.org/1999/xlink">
    <!-- Generator: Sketch 46.1 (44463) - http://www.bohemiancoding.com/sketch -->
    <title>detail-image-three</title>
    <desc>Created with Sketch.</desc>
    <defs></defs>
    <g id="Page-1" stroke="none" stroke-width="1" fill="none" fill-rule="evenodd">
        <g id="detail-image-three" transform="translate(1.000000, 2.000000)" stroke="#820063" stroke-width="2">
            <path d="M34.6566917,22.84192 L34.6566917,26.80032 C34.6566917,26.85792 33.3089972,27.18832 33.2203861,27.21472 C32.0571639,27.56352 30.9036083,27.94032 29.7621361,28.35152 C27.7055528,29.09232 25.7770528,30.02112 23.7994139,30.95072 C22.6603583,31.48592 21.5374139,32.16032 20.8228861,33.19232 C19.9714139,34.42272 20.1695806,35.56672 20.139775,36.95152 L20.139775,37.92432 L20.139775,38.00032 C20.139775,38.88432 20.8607472,39.60032 21.7508861,39.60032 L55.5842194,39.60032 C56.4743583,39.60032 57.1953306,38.88432 57.1953306,38.00032 C57.1953306,38.00032 57.2613861,35.80192 57.2291639,35.06992 C57.194525,34.24272 56.8835806,33.41712 56.3374139,32.79152 C55.9056361,32.29632 55.3264417,31.95632 54.751275,31.63632 C51.0207472,29.56512 47.0638583,28.24512 43.0175528,26.96032 L43.0175528,22.84112" id="Stroke-1"></path>
            <path d="M47.2631528,13.72624 C47.0641806,11.10864 45.9911806,8.52304 44.1456528,6.64304 L42.3750417,5.36304 C42.6811528,4.79504 42.9872639,4.22784 43.2941806,3.65984 C40.726875,4.35344 37.9243472,4.21904 35.521375,5.35424 C33.7137083,6.20864 32.2701528,7.74864 31.4138472,9.54624 C30.8386806,10.75424 30.5237083,12.07184 30.4342917,13.40624 C30.2594861,13.56064 30.1281806,14.12624 30.1281806,14.80224 C30.1281806,15.59744 30.308625,16.24304 30.5309583,16.24304 C30.547875,16.24304 30.5647917,16.23824 30.5809028,16.23104 C30.8902361,18.05184 31.620875,19.80944 32.8139028,21.22064 C34.194625,22.85504 36.2205972,23.98864 38.3649861,24.10944 C39.9624028,24.20064 41.5686806,23.73504 42.9292639,22.90224 C45.3153194,21.44224 46.6759028,19.10384 47.1278194,16.55504 C47.1407083,16.55984 47.1527917,16.56224 47.1664861,16.56224 C47.3888194,16.56224 47.5692639,15.91744 47.5692639,15.12224 C47.5692639,14.44624 47.4387639,13.88144 47.2631528,13.72624 Z" id="Stroke-3"></path>
            <path d="M28.3287306,25.60128 C26.5387861,24.93568 24.7190361,24.34448 22.8783417,23.76048 L22.8783417,19.64128" id="Stroke-5"></path>
            <path d="M14.5178028,19.64192 L14.5178028,23.60032 C14.5178028,23.65792 13.1701083,23.98832 13.0814972,24.01472 C11.918275,24.36352 10.7647194,24.74032 9.62324722,25.15152 C7.56666389,25.89232 5.63816389,26.82112 3.660525,27.75072 C2.52146944,28.28592 1.398525,28.96032 0.683997222,29.99232 C-0.167475,31.22272 0.0306916667,32.36672 0.000886111111,33.75152 L0.000886111111,34.72432 L0.000886111111,34.80032 C0.000886111111,35.68432 0.721858333,36.40032 1.61199722,36.40032 L17.2454139,36.40032" id="Stroke-7"></path>
            <path d="M27.1242639,10.52624 C26.9252917,7.90864 25.8522917,5.32304 24.0067639,3.44304 L22.2361528,2.16304 C22.5422639,1.59504 22.848375,1.02784 23.1552917,0.45984 C20.5879861,1.15344 17.7854583,1.01904 15.3824861,2.15424 C13.5748194,3.00864 12.1312639,4.54864 11.2749583,6.34624 C10.6997917,7.55424 10.3848194,8.87184 10.2954028,10.20624 C10.1205972,10.36064 9.98929167,10.92624 9.98929167,11.60224 C9.98929167,12.39744 10.1697361,13.04304 10.3920694,13.04304 C10.4089861,13.04304 10.4250972,13.03824 10.4420139,13.03104 C10.7513472,14.85184 11.4819861,16.60944 12.6750139,18.02064 C14.0557361,19.65504 16.0817083,20.78864 18.2260972,20.90944 C19.8235139,21.00064 21.4297917,20.53504 22.790375,19.70224 C25.1764306,18.24224 26.5370139,15.90384 26.9889306,13.35504 C27.0018194,13.35984 27.0139028,13.36224 27.0275972,13.36224 C27.2499306,13.36224 27.430375,12.71744 27.430375,11.92224 C27.430375,11.24624 27.299875,10.68144 27.1242639,10.52624 Z" id="Stroke-9"></path>
        </g>
    </g>
</svg>