<?xml version="1.0" encoding="UTF-8"?>
<svg width="347px" height="99px" viewBox="0 0 347 99" version="1.1" xmlns="http://www.w3.org/2000/svg" xmlns:xlink="http://www.w3.org/1999/xlink">
    <!-- Generator: Sketch 40.1 (33804) - http://www.bohemiancoding.com/sketch -->
    <title>logo</title>
    <desc>Created with Sketch.</desc>
    <defs>
        <filter x="-50%" y="-50%" width="200%" height="200%" filterUnits="objectBoundingBox" id="filter-1">
            <feOffset dx="0" dy="2" in="SourceAlpha" result="shadowOffsetOuter1"></feOffset>
            <feGaussianBlur stdDeviation="3" in="shadowOffsetOuter1" result="shadowBlurOuter1"></feGaussianBlur>
            <feColorMatrix values="0 0 0 0 0.125490196   0 0 0 0 0.439215686   0 0 0 0 0.694117647  0 0 0 0.5 0" type="matrix" in="shadowBlurOuter1" result="shadowMatrixOuter1"></feColorMatrix>
            <feMerge>
                <feMergeNode in="shadowMatrixOuter1"></feMergeNode>
                <feMergeNode in="SourceGraphic"></feMergeNode>
            </feMerge>
        </filter>
    </defs>
    <g id="Page-1" stroke="none" stroke-width="1" fill="none" fill-rule="evenodd">
        <g id="logo" transform="translate(6.000000, 4.000000)">
            <g id="Group-24">
                <g id="24ahoy-05" filter="url(#filter-1)">
                    <path d="M61.9935,76.695 L40.892,76.695 C40.751,76.695 40.6145,76.6435 40.5085,76.55 L36.3155,72.8625 C36.2095,72.769 36.073,72.7175 35.932,72.7175 L21.4425,72.7175 C21.3345,72.7175 21.229,72.7475 21.137,72.8045 L19.5535,73.7825 C19.4695,73.8345 19.4,73.907 19.3515,73.994 L16.5995,78.928 C16.493,79.098 16.307,79.201 16.1065,79.201 L1.525,79.201 C1.3675,79.201 1.2175,79.264 1.108,79.3775 C0.8415,79.653 0.3555,80.1885 0.266,80.5085 C0.1255,81.008 0.756,82.5245 0.756,82.5245 L3.2365,86.449 C3.343,86.6175 3.5285,86.7195 3.728,86.7195 L52.0465,86.7195 C52.162,86.7195 52.2745,86.6855 52.3705,86.6205 C53.0065,86.192 55.16,84.414 56.39,83.2745 C57.5545,82.196 62.5745,77.294 62.5745,77.294 L62.5745,77.276 C62.5745,76.955 62.3145,76.695 61.9935,76.695" id="Fill-1" fill="#FFFFFF"></path>
                    <path d="M35.1885,0.6385 L35.1885,72.9355" id="Stroke-2" stroke="#FFFFFF" stroke-width="0.8715" stroke-linecap="round"></path>
                    <path d="M35.6335,1.728 L34.009,1.728 C33.829,1.728 33.682,1.581 33.682,1.4015 C33.682,1.2215 33.829,1.0745 34.009,1.0745 L35.6335,1.0745 C35.813,1.0745 35.96,1.2215 35.96,1.4015 C35.96,1.581 35.813,1.728 35.6335,1.728" id="Fill-3" fill="#FFFFFF"></path>
                    <path d="M35.6335,4.997 L34.009,4.997 C33.829,4.997 33.682,4.85 33.682,4.67 C33.682,4.4905 33.829,4.3435 34.009,4.3435 L35.6335,4.3435 C35.813,4.3435 35.96,4.4905 35.96,4.67 C35.96,4.85 35.813,4.997 35.6335,4.997" id="Fill-4" fill="#FFFFFF"></path>
                    <path d="M4.933,70.266 L34.9705,70.266 C34.9705,70.266 35.3335,-7.207 34.821,8.702 C34.592,15.822 30.4455,29.2885 24.718,41.469 C17.6485,56.5045 8.747,69.83 8.747,69.83" id="Fill-5" fill="#FFFFFF"></path>
                    <path d="M4.933,70.266 L34.9705,70.266 C34.9705,70.266 35.3335,-7.207 34.821,8.702 C34.592,15.822 30.4455,29.2885 24.718,41.469 C17.6485,56.5045 8.747,69.83 8.747,69.83" id="Stroke-6" stroke="#FFFFFF" stroke-width="1.3075" stroke-linecap="round"></path>
                    <path d="M8.1555,70.9745 L4.1705,79.201" id="Stroke-7" stroke="#FFFFFF" stroke-width="0.8715" stroke-linecap="round"></path>
                    <path d="M37.7455,4.979 C39.538,7.5495 38.833,68.174 38.625,68.832 C37.942,70.9955 69.777,70.0655 70.705,69.799 C73.525,68.989 42.78,5.382 40.684,4.8875 C39.917,4.7065 37.1605,4.141 37.7455,4.979" id="Fill-8" fill="#FFFFFF"></path>
                    <path d="M37.7455,4.979 C39.538,7.5495 38.833,68.174 38.625,68.832 C37.942,70.9955 69.777,70.0655 70.705,69.799 C73.525,68.989 42.78,5.382 40.684,4.8875 C39.917,4.7065 37.1605,4.141 37.7455,4.979 L37.7455,4.979 Z" id="Stroke-9" stroke="#FFFFFF" stroke-width="1.3075"></path>
                    <path d="M61.607,69.83 L57.6515,76.9205" id="Stroke-10" stroke="#FFFFFF" stroke-width="0.8715" stroke-linecap="round"></path>
                    <path d="M33.881,5.409 L33.881,0.618 C33.881,0.344 33.633,0.1375 33.364,0.1895 C31.592,0.529 27.5035,1.318 25.5065,1.2715 C23.3275,1.2215 19.903,2.155 18.4025,3.011 C18.206,3.1235 18.2885,3.423 18.5145,3.418 C20.2215,3.3805 23.8005,4.579 25.8335,5.3035 C28.345,6.198 32.088,6.113 33.529,5.837 C33.734,5.7975 33.881,5.6185 33.881,5.409" id="Fill-11" fill="#FFFFFF"></path>
                    <polyline id="Fill-12" fill="#FFFFFF" points="143.356 84.6245 143.356 55.2245 112.456 55.2245 112.456 84.6245 98.6565 84.6245 98.6565 13.7245 112.456 13.7245 112.456 42.2245 143.356 42.2245 143.356 13.7245 157.2565 13.7245 157.2565 84.6245 143.356 84.6245"></polyline>
                    <path d="M198.5545,49.1245 C198.5545,53.1245 199.1875,56.609 200.4545,59.5745 C201.72,62.542 203.4045,64.9915 205.5045,66.925 C207.6045,68.859 209.97,70.309 212.6045,71.2745 C215.2375,72.2415 217.92,72.7245 220.6545,72.7245 C223.387,72.7245 226.0875,72.2415 228.7545,71.2745 C231.42,70.309 233.8045,68.859 235.9045,66.925 C238.0045,64.9915 239.6875,62.542 240.9545,59.5745 C242.22,56.609 242.8545,53.1245 242.8545,49.1245 C242.8545,45.1245 242.22,41.6415 240.9545,38.6745 C239.6875,35.709 238.0045,33.259 235.9045,31.3245 C233.8045,29.3915 231.42,27.9415 228.7545,26.9745 C226.0875,26.009 223.387,25.5245 220.6545,25.5245 C217.92,25.5245 215.2375,26.009 212.6045,26.9745 C209.97,27.9415 207.6045,29.3915 205.5045,31.3245 C203.4045,33.259 201.72,35.709 200.4545,38.6745 C199.1875,41.6415 198.5545,45.1245 198.5545,49.1245 L198.5545,49.1245 Z M184.2545,49.2245 C184.2545,43.4915 185.2545,38.342 187.2545,33.7745 C189.2545,29.209 191.92,25.3245 195.2545,22.1245 C198.5875,18.9245 202.4545,16.4745 206.8545,14.7745 C211.2545,13.0745 215.8545,12.2245 220.6545,12.2245 C225.4545,12.2245 230.0705,13.0745 234.5045,14.7745 C238.9375,16.4745 242.8205,18.9245 246.1545,22.1245 C249.4875,25.3245 252.1545,29.209 254.1545,33.7745 C256.1545,38.342 257.1545,43.4915 257.1545,49.2245 C257.1545,54.959 256.1545,60.092 254.1545,64.6245 C252.1545,69.159 249.4875,73.0245 246.1545,76.2245 C242.8205,79.425 238.9375,81.8745 234.5045,83.5745 C230.0705,85.2745 225.4545,86.1245 220.6545,86.1245 C215.8545,86.1245 211.2545,85.2745 206.8545,83.5745 C202.4545,81.8745 198.5875,79.425 195.2545,76.2245 C191.92,73.0245 189.2545,69.159 187.2545,64.6245 C185.2545,60.092 184.2545,54.959 184.2545,49.2245 L184.2545,49.2245 Z" id="Fill-13" fill="#FFFFFF"></path>
                    <polyline id="Fill-14" fill="#FFFFFF" points="272.255 13.7245 288.455 13.7245 304.355 41.8245 320.255 13.7245 335.755 13.7245 310.755 54.8245 310.755 84.6245 296.955 84.6245 296.955 54.8245 272.255 13.7245"></polyline>
                </g>
            </g>
        </g>
    </g>
</svg>