<?xml version="1.0" encoding="UTF-8"?>
<svg width="41px" height="41px" viewBox="0 0 41 41" version="1.1" xmlns="http://www.w3.org/2000/svg" xmlns:xlink="http://www.w3.org/1999/xlink">
    <!-- Generator: Sketch 46.1 (44463) - http://www.bohemiancoding.com/sketch -->
    <title>detail-image-one</title>
    <desc>Created with Sketch.</desc>
    <defs>
        <polygon id="path-1" points="0.7701 0 2.2971 0 2.2971 6.6802 0.7701 6.6802 0.7701 0"></polygon>
        <polygon id="path-3" points="0.1094 0 1.6364 0 1.6364 6.6802 0.1094 6.6802 0.1094 0"></polygon>
        <polygon id="path-5" points="0.4488 0 1.9758 0 1.9758 6.6802 0.4488 6.6802 0.4488 0"></polygon>
        <polygon id="path-7" points="0.7887 0 2.3157 0 2.3157 6.6802 0.7887 6.6802 0.7887 0"></polygon>
        <polygon id="path-9" points="0.128 0 1.655 7.10542736e-15 1.655 6.6802 0.128 6.6802 0.128 0"></polygon>
    </defs>
    <g id="Page-1" stroke="none" stroke-width="1" fill="none" fill-rule="evenodd">
        <g id="detail-image-one" transform="translate(1.000000, 0.000000)">
            <path d="M32.1786,39.9996 L5.9996,39.9996 C2.6996,39.9996 -0.0004,37.3006 -0.0004,33.9996 L-0.0004,9.3126 C-0.0004,6.0126 2.6996,3.3126 5.9996,3.3126 L32.1786,3.3126 C35.4786,3.3126 38.1786,6.0126 38.1786,9.3126 L38.1786,33.9996 C38.1786,37.3006 35.4786,39.9996 32.1786,39.9996 Z" id="Stroke-1" stroke="#820063" stroke-width="2"></path>
            <path d="M0.2304,9.6695 L38.2304,9.6695" id="Stroke-3" stroke="#820063" stroke-width="2"></path>
            <g id="Group-7" transform="translate(5.000000, 0.000000)">
                <mask id="mask-2" fill="white">
                    <use xlink:href="#path-1"></use>
                </mask>
                <g id="Clip-6"></g>
                <path d="M1.5341,6.6802 L1.5341,6.6802 C1.1141,6.6802 0.7701,6.3362 0.7701,5.9162 L0.7701,0.7632 C0.7701,0.3432 1.1141,-0.0008 1.5341,-0.0008 C1.9541,-0.0008 2.2971,0.3432 2.2971,0.7632 L2.2971,5.9162 C2.2971,6.3362 1.9541,6.6802 1.5341,6.6802" id="Fill-5" fill="#820063" mask="url(#mask-2)"></path>
            </g>
            <g id="Group-10" transform="translate(12.000000, 0.000000)">
                <mask id="mask-4" fill="white">
                    <use xlink:href="#path-3"></use>
                </mask>
                <g id="Clip-9"></g>
                <path d="M0.8734,6.6802 L0.8734,6.6802 C0.4534,6.6802 0.1094,6.3362 0.1094,5.9162 L0.1094,0.7632 C0.1094,0.3432 0.4534,-0.0008 0.8734,-0.0008 C1.2934,-0.0008 1.6364,0.3432 1.6364,0.7632 L1.6364,5.9162 C1.6364,6.3362 1.2934,6.6802 0.8734,6.6802" id="Fill-8" fill="#820063" mask="url(#mask-4)"></path>
            </g>
            <g id="Group-13" transform="translate(18.000000, 0.000000)">
                <mask id="mask-6" fill="white">
                    <use xlink:href="#path-5"></use>
                </mask>
                <g id="Clip-12"></g>
                <path d="M1.2128,6.6802 L1.2128,6.6802 C0.7928,6.6802 0.4488,6.3362 0.4488,5.9162 L0.4488,0.7632 C0.4488,0.3432 0.7928,-0.0008 1.2128,-0.0008 C1.6328,-0.0008 1.9758,0.3432 1.9758,0.7632 L1.9758,5.9162 C1.9758,6.3362 1.6328,6.6802 1.2128,6.6802" id="Fill-11" fill="#820063" mask="url(#mask-6)"></path>
            </g>
            <g id="Group-16" transform="translate(24.000000, 0.000000)">
                <mask id="mask-8" fill="white">
                    <use xlink:href="#path-7"></use>
                </mask>
                <g id="Clip-15"></g>
                <path d="M1.5517,6.6802 L1.5517,6.6802 C1.1317,6.6802 0.7887,6.3362 0.7887,5.9162 L0.7887,0.7632 C0.7887,0.3432 1.1317,-0.0008 1.5517,-0.0008 C1.9717,-0.0008 2.3157,0.3432 2.3157,0.7632 L2.3157,5.9162 C2.3157,6.3362 1.9717,6.6802 1.5517,6.6802" id="Fill-14" fill="#820063" mask="url(#mask-8)"></path>
            </g>
            <g id="Group-19" transform="translate(31.000000, 0.000000)">
                <mask id="mask-10" fill="white">
                    <use xlink:href="#path-9"></use>
                </mask>
                <g id="Clip-18"></g>
                <path d="M0.891,6.6802 L0.891,6.6802 C0.471,6.6802 0.128,6.3362 0.128,5.9162 L0.128,0.7632 C0.128,0.3432 0.471,-0.0008 0.891,-0.0008 C1.311,-0.0008 1.655,0.3432 1.655,0.7632 L1.655,5.9162 C1.655,6.3362 1.311,6.6802 0.891,6.6802" id="Fill-17" fill="#820063" mask="url(#mask-10)"></path>
            </g>
            <path d="M7.2201,20.9839 L6.0291,20.9839 C5.1491,20.9839 4.4361,20.2709 4.4361,19.3909 L4.4361,18.5779 C4.4361,17.6979 5.1491,16.9839 6.0291,16.9839 L7.2201,16.9839 C8.1001,16.9839 8.8131,17.6979 8.8131,18.5779 L8.8131,19.3909 C8.8131,20.2709 8.1001,20.9839 7.2201,20.9839" id="Fill-20" fill="#820063"></path>
            <path d="M13.5141,20.9839 L12.3231,20.9839 C11.4431,20.9839 10.7301,20.2709 10.7301,19.3909 L10.7301,18.5779 C10.7301,17.6979 11.4431,16.9839 12.3231,16.9839 L13.5141,16.9839 C14.3941,16.9839 15.1071,17.6979 15.1071,18.5779 L15.1071,19.3909 C15.1071,20.2709 14.3941,20.9839 13.5141,20.9839" id="Fill-22" fill="#820063"></path>
            <path d="M19.808,20.9839 L18.617,20.9839 C17.737,20.9839 17.024,20.2709 17.024,19.3909 L17.024,18.5779 C17.024,17.6979 17.737,16.9839 18.617,16.9839 L19.808,16.9839 C20.688,16.9839 21.401,17.6979 21.401,18.5779 L21.401,19.3909 C21.401,20.2709 20.688,20.9839 19.808,20.9839" id="Fill-24" fill="#820063"></path>
            <path d="M26.102,20.9839 L24.911,20.9839 C24.031,20.9839 23.318,20.2709 23.318,19.3909 L23.318,18.5779 C23.318,17.6979 24.031,16.9839 24.911,16.9839 L26.102,16.9839 C26.982,16.9839 27.695,17.6979 27.695,18.5779 L27.695,19.3909 C27.695,20.2709 26.982,20.9839 26.102,20.9839" id="Fill-26" fill="#820063"></path>
            <path d="M32.3959,20.9839 L31.2049,20.9839 C30.3249,20.9839 29.6119,20.2709 29.6119,19.3909 L29.6119,18.5779 C29.6119,17.6979 30.3249,16.9839 31.2049,16.9839 L32.3959,16.9839 C33.2759,16.9839 33.9899,17.6979 33.9899,18.5779 L33.9899,19.3909 C33.9899,20.2709 33.2759,20.9839 32.3959,20.9839" id="Fill-28" fill="#820063"></path>
            <path d="M7.2201,27.1871 L6.0291,27.1871 C5.1491,27.1871 4.4361,26.4741 4.4361,25.5941 L4.4361,24.7811 C4.4361,23.9011 5.1491,23.1871 6.0291,23.1871 L7.2201,23.1871 C8.1001,23.1871 8.8131,23.9011 8.8131,24.7811 L8.8131,25.5941 C8.8131,26.4741 8.1001,27.1871 7.2201,27.1871" id="Fill-30" fill="#820063"></path>
            <path d="M13.5141,27.1871 L12.3231,27.1871 C11.4431,27.1871 10.7301,26.4741 10.7301,25.5941 L10.7301,24.7811 C10.7301,23.9011 11.4431,23.1871 12.3231,23.1871 L13.5141,23.1871 C14.3941,23.1871 15.1071,23.9011 15.1071,24.7811 L15.1071,25.5941 C15.1071,26.4741 14.3941,27.1871 13.5141,27.1871" id="Fill-32" fill="#820063"></path>
            <path d="M19.808,27.1871 L18.617,27.1871 C17.737,27.1871 17.024,26.4741 17.024,25.5941 L17.024,24.7811 C17.024,23.9011 17.737,23.1871 18.617,23.1871 L19.808,23.1871 C20.688,23.1871 21.401,23.9011 21.401,24.7811 L21.401,25.5941 C21.401,26.4741 20.688,27.1871 19.808,27.1871" id="Fill-34" fill="#820063"></path>
            <path d="M26.102,27.1871 L24.911,27.1871 C24.031,27.1871 23.318,26.4741 23.318,25.5941 L23.318,24.7811 C23.318,23.9011 24.031,23.1871 24.911,23.1871 L26.102,23.1871 C26.982,23.1871 27.695,23.9011 27.695,24.7811 L27.695,25.5941 C27.695,26.4741 26.982,27.1871 26.102,27.1871" id="Fill-36" fill="#820063"></path>
            <path d="M32.3959,27.1871 L31.2049,27.1871 C30.3249,27.1871 29.6119,26.4741 29.6119,25.5941 L29.6119,24.7811 C29.6119,23.9011 30.3249,23.1871 31.2049,23.1871 L32.3959,23.1871 C33.2759,23.1871 33.9899,23.9011 33.9899,24.7811 L33.9899,25.5941 C33.9899,26.4741 33.2759,27.1871 32.3959,27.1871" id="Fill-38" fill="#820063"></path>
            <path d="M7.2201,33.5816 L6.0291,33.5816 C5.1491,33.5816 4.4361,32.8676 4.4361,31.9876 L4.4361,31.1746 C4.4361,30.2946 5.1491,29.5816 6.0291,29.5816 L7.2201,29.5816 C8.1001,29.5816 8.8131,30.2946 8.8131,31.1746 L8.8131,31.9876 C8.8131,32.8676 8.1001,33.5816 7.2201,33.5816" id="Fill-40" fill="#820063"></path>
            <path d="M13.5141,33.5816 L12.3231,33.5816 C11.4431,33.5816 10.7301,32.8676 10.7301,31.9876 L10.7301,31.1746 C10.7301,30.2946 11.4431,29.5816 12.3231,29.5816 L13.5141,29.5816 C14.3941,29.5816 15.1071,30.2946 15.1071,31.1746 L15.1071,31.9876 C15.1071,32.8676 14.3941,33.5816 13.5141,33.5816" id="Fill-42" fill="#820063"></path>
            <path d="M19.808,33.5816 L18.617,33.5816 C17.737,33.5816 17.024,32.8676 17.024,31.9876 L17.024,31.1746 C17.024,30.2946 17.737,29.5816 18.617,29.5816 L19.808,29.5816 C20.688,29.5816 21.401,30.2946 21.401,31.1746 L21.401,31.9876 C21.401,32.8676 20.688,33.5816 19.808,33.5816" id="Fill-44" fill="#820063"></path>
        </g>
    </g>
</svg>