<?xml version="1.0" encoding="UTF-8"?>
<svg width="48px" height="60px" viewBox="0 0 48 60" version="1.1" xmlns="http://www.w3.org/2000/svg" xmlns:xlink="http://www.w3.org/1999/xlink">
    <!-- Generator: Sketch 46.1 (44463) - http://www.bohemiancoding.com/sketch -->
    <title>Page 1</title>
    <desc>Created with Sketch.</desc>
    <defs>
        <polygon id="path-1" points="9.41941698e-05 6.82121026e-15 47.9282374 6.82121026e-15 47.9282374 59.916 9.41941698e-05 59.916"></polygon>
        <linearGradient x1="50%" y1="0%" x2="50%" y2="99.3383291%" id="linearGradient-3">
            <stop stop-color="#850065" offset="0%"></stop>
            <stop stop-color="#7B005D" offset="100%"></stop>
        </linearGradient>
    </defs>
    <g id="Page-1" stroke="none" stroke-width="1" fill="none" fill-rule="evenodd">
        <g>
            <mask id="mask-2" fill="white">
                <use xlink:href="#path-1"></use>
            </mask>
            <g id="Clip-2"></g>
            <path d="M7.86469146,24.102048 C7.49974673,24.465168 6.90276181,24.465168 6.53781709,24.102048 C6.17287236,23.738928 6.17287236,23.144928 6.53781709,22.782048 C6.90276181,22.418928 7.49974673,22.418928 7.86469146,22.782048 C8.22963618,23.144928 8.22963618,23.738928 7.86469146,24.102048 M43.117194,46.172208 C47.1962291,40.661568 48.812792,33.412128 47.4596261,26.701968 C46.1059779,19.991568 41.8038271,13.924128 35.9036864,10.405968 C36.7628623,6.727008 38.6211136,3.284208 41.2292744,0.540048 C36.3578774,-0.908352 30.7199276,0.623328 27.2644101,4.333728 C26.253998,5.418768 25.3120884,6.739248 23.8713648,7.103808 C23.1716261,7.280928 22.4364302,7.203888 21.7159477,7.157088 C15.1766111,6.732288 7.89363618,8.892288 3.54517387,13.976928 C1.89146533,15.911088 0.745495477,18.275568 0.244992965,20.764848 C-0.317740704,23.562048 0.135967839,25.970448 1.12973668,28.621248 C1.45295276,29.483808 1.79257085,30.356688 2.07743518,31.240128 C2.54175678,32.680368 2.86038995,34.147968 2.72531457,35.642688 C2.59940503,37.039248 3.27719397,37.201488 4.3942191,37.847088 C4.45741508,37.883568 4.52519397,37.921248 4.59803819,37.916928 C4.69066131,37.911888 4.76447035,37.840848 4.82766633,37.772928 C6.14272161,36.362688 6.75924422,34.464288 7.67727437,32.771328 C8.56032965,31.142448 9.73331457,29.690208 10.8993045,28.248288 C11.622199,27.354528 12.351606,26.453568 13.2418975,25.724688 C13.9922894,25.110288 14.8415759,24.632928 15.7137769,24.212688 C15.9231437,24.111888 17.9984804,23.343888 17.9823196,23.135568 C18.1289729,25.017408 18.8115859,26.855088 19.9302995,28.379328 C20.7783799,29.534448 22.0336161,30.571488 23.4702392,30.512448 C23.0703196,27.992688 22.6747417,25.381968 23.3508422,22.921008 C23.4227216,22.658688 23.5143799,22.387008 23.7148221,22.202208 C24.1948221,21.759648 25.6724503,22.344048 26.2359075,22.452288 C28.0929528,22.809408 29.7210935,23.122848 31.3752844,24.067248 C32.8379578,24.901968 34.1742392,25.951968 35.341194,27.162048 C37.1085106,28.994928 38.4915859,31.199808 39.3420784,33.596208 C40.2960482,36.285648 40.0840281,39.133728 39.5548221,41.904048 C39.4081688,42.672528 39.3348422,43.456368 39.0663799,44.195088 C38.9424,44.536128 38.7957467,44.869968 38.6092945,45.181968 C38.4976161,45.369648 37.9592442,45.864528 37.9454955,46.040688 C38.0262995,44.989248 38.1068623,43.937808 38.1874251,42.886608 C34.8942392,41.384208 31.3511638,40.315488 28.1491538,42.722688 C27.9569126,42.867408 27.7540583,43.059888 27.7707015,43.298928 C27.7938573,43.629168 28.1923296,43.771488 28.5140985,43.855008 C29.744008,44.174928 30.8979377,44.780208 31.8579377,45.608688 C32.8948824,46.503648 33.7053347,47.650608 34.8201889,48.447168 C36.0054754,49.293888 37.2008925,49.364688 38.5415156,48.931968 C38.2166111,49.036848 38.3217769,50.550288 38.3586814,50.803968 C38.4491337,51.422928 38.6876864,51.953328 39.0386412,52.464048 C39.8191839,53.599488 40.9183598,54.471888 41.7153045,55.593888 C42.6584201,56.921568 43.4150834,58.380048 43.9505608,59.916048 C45.9506412,59.413248 46.6117869,56.894688 46.4861186,54.846048 C46.2926714,51.702768 45.0984603,48.628128 43.117194,46.172208" id="Fill-1" fill="url(#linearGradient-3)" mask="url(#mask-2)"></path>
        </g>
    </g>
</svg>