<?xml version="1.0" encoding="UTF-8"?>
<svg width="75px" height="75px" viewBox="0 0 75 75" version="1.1" xmlns="http://www.w3.org/2000/svg" xmlns:xlink="http://www.w3.org/1999/xlink">
    <!-- Generator: Sketch 40.1 (33804) - http://www.bohemiancoding.com/sketch -->
    <title>ic-crew</title>
    <desc>Created with Sketch.</desc>
    <defs></defs>
    <g id="Page-1" stroke="none" stroke-width="1" fill="none" fill-rule="evenodd">
        <g id="ic-crew">
            <circle id="Oval-2" fill-opacity="0.5" fill="#24B47E" cx="37.5" cy="37.5" r="37.5"></circle>
            <g id="Page-1" transform="translate(19.736842, 23.684211)" stroke="#659784" stroke-width="1.59157895">
                <path d="M7.34186842,14.4581053 L7.34186842,17.1225789 L2.04686842,19.0931053 C0.820026316,19.5336316 -0.000236842105,20.7004737 -0.000236842105,22.0078421 L-0.000236842105,23.5086316 C-0.000236842105,24.2752105 0.621078947,24.8965263 1.38844737,24.8965263 L7.75555263,24.8965263" id="Stroke-1"></path>
                <polyline id="Stroke-3" points="13.3481842 17.7352895 12.2366053 17.1226579 12.2366053 14.4195"></polyline>
                <path d="M29.5270263,7.66610526 C29.5270263,11.9008421 26.6754474,15.3334737 23.1559737,15.3334737 C19.6380789,15.3334737 16.7865,11.9008421 16.7865,7.66610526 C16.7865,3.43294737 19.6380789,0.000315789473 23.1559737,0.000315789473 C26.6754474,0.000315789473 29.5270263,3.43294737 29.5270263,7.66610526 L29.5270263,7.66610526 Z" id="Stroke-5"></path>
                <path d="M26.1469737,14.4347368 L26.1469737,17.7355263 L32.7051316,20.175 C34.2248684,20.7213158 35.2409211,22.1660526 35.2409211,23.7852632 L35.2409211,25.9752632 C35.2409211,26.7426316 34.6188158,27.3639474 33.8522368,27.3639474 L12.4567105,27.3639474 C11.6901316,27.3639474 11.0680263,26.7426316 11.0680263,25.9752632 L11.0680263,23.7852632 C11.0680263,22.1660526 12.0840789,20.7213158 13.6038158,20.175 L20.1619737,17.7355263 L20.1619737,14.4347368" id="Stroke-7"></path>
                <path d="M26.2248947,17.7352895 L26.2248947,14.3871316" id="Stroke-9"></path>
                <path d="M17.1548684,5.23113158 C18.1180263,6.14297368 19.4182895,6.70192105 20.8496053,6.70192105 C22.6077632,6.70192105 24.1669737,5.85797368 25.1482895,4.55297368 C25.2264474,4.44797368 25.5011842,4.4535 25.5714474,4.56165789 C26.5290789,6.03955263 27.6343421,7.01771053 29.5267105,7.01771053" id="Stroke-11"></path>
                <path d="M13.2765,4.47726316 C12.3915,3.81963158 12.8454474,2.51621053 12.8454474,2.51621053 L11.7046579,2.96305263 L12.1680789,1.21752632 C12.1680789,1.21752632 10.1943947,2.19805263 9.75939474,2.36147368 C9.32518421,2.52489474 7.75413158,3.04278947 6.6465,4.06673684 C6.64571053,4.06752632 6.64571053,4.06831579 6.64492105,4.06910526 C5.41255263,5.19963158 4.61676316,6.98463158 4.61676316,8.99305263 C4.61676316,12.4122632 6.91886842,15.1841053 9.75939474,15.1841053 C12.6007105,15.1841053 14.9028158,12.4122632 14.9028158,8.99305263 C14.9028158,7.212 14.3943947,5.30778947 13.2765,4.47726316 L13.2765,4.47726316 Z" id="Stroke-13" stroke-linecap="round"></path>
            </g>
        </g>
    </g>
</svg>