<?xml version="1.0" encoding="UTF-8"?>
<svg width="75px" height="75px" viewBox="0 0 75 75" version="1.1" xmlns="http://www.w3.org/2000/svg" xmlns:xlink="http://www.w3.org/1999/xlink">
    <!-- Generator: Sketch 40.1 (33804) - http://www.bohemiancoding.com/sketch -->
    <title>ic-dates</title>
    <desc>Created with Sketch.</desc>
    <defs></defs>
    <g id="Page-1" stroke="none" stroke-width="1" fill="none" fill-rule="evenodd">
        <g id="ic-dates">
            <circle id="Oval-2" fill-opacity="0.5" fill="#24B47E" cx="37.5" cy="37.5" r="37.5"></circle>
            <g id="Page-1" transform="translate(19.736842, 17.763158)">
                <path d="M30.9725025,39.1682785 L5.77488349,39.1682785 C2.59859169,39.1682785 -0.000192502533,36.5244197 -0.000192502533,33.2930368 L-0.000192502533,9.11935445 C-0.000192502533,5.88797147 2.59859169,3.24411267 5.77488349,3.24411267 L30.9725025,3.24411267 C34.1487943,3.24411267 36.7475785,5.88797147 36.7475785,9.11935445 L36.7475785,33.2930368 C36.7475785,36.5244197 34.1487943,39.1682785 30.9725025,39.1682785 L30.9725025,39.1682785 Z" id="Stroke-1" stroke="#659784" stroke-width="1.91842105"></path>
                <path d="M0.221762918,9.46844173 L36.7972442,9.46844173" id="Stroke-3" stroke="#659784" stroke-width="1.91842105"></path>
                <path d="M6.28905775,6.54129836 L6.28905775,6.54129836 C5.88480243,6.54129836 5.55466059,6.20445116 5.55466059,5.79416344 L5.55466059,0.747330754 C5.55466059,0.33606383 5.88480243,0.000195841392 6.28905775,0.000195841392 L6.28905775,0.000195841392 C6.69331307,0.000195841392 7.02345491,0.33606383 7.02345491,0.747330754 L7.02345491,5.79416344 C7.02345491,6.20445116 6.69331307,6.54129836 6.28905775,6.54129836" id="Fill-5" fill="#659784"></path>
                <path d="M12.3907143,6.54129836 L12.3907143,6.54129836 C11.986459,6.54129836 11.6563171,6.20445116 11.6563171,5.79416344 L11.6563171,0.747330754 C11.6563171,0.33606383 11.986459,0.000195841392 12.3907143,0.000195841392 L12.3907143,0.000195841392 C12.7949696,0.000195841392 13.1251114,0.33606383 13.1251114,0.747330754 L13.1251114,5.79416344 C13.1251114,6.20445116 12.7949696,6.54129836 12.3907143,6.54129836" id="Fill-7" fill="#659784"></path>
                <path d="M18.4923708,6.54129836 L18.4923708,6.54129836 C18.0881155,6.54129836 17.7579737,6.20445116 17.7579737,5.79416344 L17.7579737,0.747330754 C17.7579737,0.33606383 18.0881155,0.000195841392 18.4923708,0.000195841392 L18.4923708,0.000195841392 C18.8966261,0.000195841392 19.226768,0.33606383 19.226768,0.747330754 L19.226768,5.79416344 C19.226768,6.20445116 18.8966261,6.54129836 18.4923708,6.54129836" id="Fill-9" fill="#659784"></path>
                <path d="M24.5940274,6.54129836 L24.5940274,6.54129836 C24.189772,6.54129836 23.8596302,6.20445116 23.8596302,5.79416344 L23.8596302,0.747330754 C23.8596302,0.33606383 24.189772,0.000195841392 24.5940274,0.000195841392 L24.5940274,0.000195841392 C24.9982827,0.000195841392 25.3284245,0.33606383 25.3284245,0.747330754 L25.3284245,5.79416344 C25.3284245,6.20445116 24.9982827,6.54129836 24.5940274,6.54129836" id="Fill-11" fill="#659784"></path>
                <path d="M30.6956839,6.54129836 L30.6956839,6.54129836 C30.2914286,6.54129836 29.9612867,6.20445116 29.9612867,5.79416344 L29.9612867,0.747330754 C29.9612867,0.33606383 30.2914286,0.000195841392 30.6956839,0.000195841392 L30.6956839,0.000195841392 C31.0999392,0.000195841392 31.4300811,0.33606383 31.4300811,0.747330754 L31.4300811,5.79416344 C31.4300811,6.20445116 31.0999392,6.54129836 30.6956839,6.54129836" id="Fill-13" fill="#659784"></path>
                <path d="M6.94953394,20.5478748 L5.80318136,20.5478748 C4.95617021,20.5478748 4.26989868,19.8497002 4.26989868,18.9879981 L4.26989868,18.1909236 C4.26989868,17.3292215 4.95617021,16.6310469 5.80318136,16.6310469 L6.94953394,16.6310469 C7.79654509,16.6310469 8.48281662,17.3292215 8.48281662,18.1909236 L8.48281662,18.9879981 C8.48281662,19.8497002 7.79654509,20.5478748 6.94953394,20.5478748" id="Fill-15" fill="#659784"></path>
                <path d="M13.0075887,20.5478748 L11.8612361,20.5478748 C11.0142249,20.5478748 10.3279534,19.8497002 10.3279534,18.9879981 L10.3279534,18.1909236 C10.3279534,17.3292215 11.0142249,16.6310469 11.8612361,16.6310469 L13.0075887,16.6310469 C13.8545998,16.6310469 14.5408713,17.3292215 14.5408713,18.1909236 L14.5408713,18.9879981 C14.5408713,19.8497002 13.8545998,20.5478748 13.0075887,20.5478748" id="Fill-17" fill="#659784"></path>
                <path d="M19.0656434,20.5478748 L17.9192908,20.5478748 C17.0722796,20.5478748 16.3860081,19.8497002 16.3860081,18.9879981 L16.3860081,18.1909236 C16.3860081,17.3292215 17.0722796,16.6310469 17.9192908,16.6310469 L19.0656434,16.6310469 C19.9126545,16.6310469 20.598926,17.3292215 20.598926,18.1909236 L20.598926,18.9879981 C20.598926,19.8497002 19.9126545,20.5478748 19.0656434,20.5478748" id="Fill-19" fill="#659784"></path>
                <path d="M25.1236018,20.5478748 L23.9772492,20.5478748 C23.1302381,20.5478748 22.4439666,19.8497002 22.4439666,18.9879981 L22.4439666,18.1909236 C22.4439666,17.3292215 23.1302381,16.6310469 23.9772492,16.6310469 L25.1236018,16.6310469 C25.970613,16.6310469 26.6568845,17.3292215 26.6568845,18.1909236 L26.6568845,18.9879981 C26.6568845,19.8497002 25.970613,20.5478748 25.1236018,20.5478748" id="Fill-21" fill="#659784"></path>
                <path d="M31.1816565,20.5478748 L30.035304,20.5478748 C29.1882928,20.5478748 28.5020213,19.8497002 28.5020213,18.9879981 L28.5020213,18.1909236 C28.5020213,17.3292215 29.1882928,16.6310469 30.035304,16.6310469 L31.1816565,16.6310469 C32.0286677,16.6310469 32.7149392,17.3292215 32.7149392,18.1909236 L32.7149392,18.9879981 C32.7149392,19.8497002 32.0286677,20.5478748 31.1816565,20.5478748" id="Fill-23" fill="#659784"></path>
                <path d="M6.94953394,26.6219935 L5.80318136,26.6219935 C4.95617021,26.6219935 4.26989868,25.9238189 4.26989868,25.0621168 L4.26989868,24.2650423 C4.26989868,23.4033402 4.95617021,22.7051656 5.80318136,22.7051656 L6.94953394,22.7051656 C7.79654509,22.7051656 8.48281662,23.4033402 8.48281662,24.2650423 L8.48281662,25.0621168 C8.48281662,25.9238189 7.79654509,26.6219935 6.94953394,26.6219935" id="Fill-25" fill="#659784"></path>
                <path d="M13.0075887,26.6219935 L11.8612361,26.6219935 C11.0142249,26.6219935 10.3279534,25.9238189 10.3279534,25.0621168 L10.3279534,24.2650423 C10.3279534,23.4033402 11.0142249,22.7051656 11.8612361,22.7051656 L13.0075887,22.7051656 C13.8545998,22.7051656 14.5408713,23.4033402 14.5408713,24.2650423 L14.5408713,25.0621168 C14.5408713,25.9238189 13.8545998,26.6219935 13.0075887,26.6219935" id="Fill-27" fill="#659784"></path>
                <path d="M19.0656434,26.6219935 L17.9192908,26.6219935 C17.0722796,26.6219935 16.3860081,25.9238189 16.3860081,25.0621168 L16.3860081,24.2650423 C16.3860081,23.4033402 17.0722796,22.7051656 17.9192908,22.7051656 L19.0656434,22.7051656 C19.9126545,22.7051656 20.598926,23.4033402 20.598926,24.2650423 L20.598926,25.0621168 C20.598926,25.9238189 19.9126545,26.6219935 19.0656434,26.6219935" id="Fill-29" fill="#659784"></path>
                <path d="M25.1236018,26.6219935 L23.9772492,26.6219935 C23.1302381,26.6219935 22.4439666,25.9238189 22.4439666,25.0621168 L22.4439666,24.2650423 C22.4439666,23.4033402 23.1302381,22.7051656 23.9772492,22.7051656 L25.1236018,22.7051656 C25.970613,22.7051656 26.6568845,23.4033402 26.6568845,24.2650423 L26.6568845,25.0621168 C26.6568845,25.9238189 25.970613,26.6219935 25.1236018,26.6219935" id="Fill-31" fill="#659784"></path>
                <path d="M31.1816565,26.6219935 L30.035304,26.6219935 C29.1882928,26.6219935 28.5020213,25.9238189 28.5020213,25.0621168 L28.5020213,24.2650423 C28.5020213,23.4033402 29.1882928,22.7051656 30.035304,22.7051656 L31.1816565,22.7051656 C32.0286677,22.7051656 32.7149392,23.4033402 32.7149392,24.2650423 L32.7149392,25.0621168 C32.7149392,25.9238189 32.0286677,26.6219935 31.1816565,26.6219935" id="Fill-33" fill="#659784"></path>
                <path d="M6.94953394,32.8829449 L5.80318136,32.8829449 C4.95617021,32.8829449 4.26989868,32.1847703 4.26989868,31.3230682 L4.26989868,30.5259937 C4.26989868,29.6642916 4.95617021,28.966117 5.80318136,28.966117 L6.94953394,28.966117 C7.79654509,28.966117 8.48281662,29.6642916 8.48281662,30.5259937 L8.48281662,31.3230682 C8.48281662,32.1847703 7.79654509,32.8829449 6.94953394,32.8829449" id="Fill-35" fill="#659784"></path>
                <path d="M13.0075887,32.8829449 L11.8612361,32.8829449 C11.0142249,32.8829449 10.3279534,32.1847703 10.3279534,31.3230682 L10.3279534,30.5259937 C10.3279534,29.6642916 11.0142249,28.966117 11.8612361,28.966117 L13.0075887,28.966117 C13.8545998,28.966117 14.5408713,29.6642916 14.5408713,30.5259937 L14.5408713,31.3230682 C14.5408713,32.1847703 13.8545998,32.8829449 13.0075887,32.8829449" id="Fill-37" fill="#659784"></path>
                <path d="M19.0656434,32.8829449 L17.9192908,32.8829449 C17.0722796,32.8829449 16.3860081,32.1847703 16.3860081,31.3230682 L16.3860081,30.5259937 C16.3860081,29.6642916 17.0722796,28.966117 17.9192908,28.966117 L19.0656434,28.966117 C19.9126545,28.966117 20.598926,29.6642916 20.598926,30.5259937 L20.598926,31.3230682 C20.598926,32.1847703 19.9126545,32.8829449 19.0656434,32.8829449" id="Fill-39" fill="#659784"></path>
            </g>
        </g>
    </g>
</svg>