<?xml version="1.0" encoding="UTF-8"?>
<svg width="75px" height="75px" viewBox="0 0 75 75" version="1.1" xmlns="http://www.w3.org/2000/svg" xmlns:xlink="http://www.w3.org/1999/xlink">
    <!-- Generator: Sketch 40.1 (33804) - http://www.bohemiancoding.com/sketch -->
    <title>ic-location</title>
    <desc>Created with Sketch.</desc>
    <defs></defs>
    <g id="Page-1" stroke="none" stroke-width="1" fill="none" fill-rule="evenodd">
        <g id="ic-location">
            <circle id="Oval-2" fill-opacity="0.5" fill="#24B47E" cx="37.5" cy="37.5" r="37.5"></circle>
            <g id="Page-1" transform="translate(25.657895, 21.710526)" stroke="#659784" stroke-width="1.65789474">
                <path d="M23.3513348,11.4759698 C23.3513348,16.4076688 16.2831679,26.5339716 13.1462082,30.7869473 C12.420195,31.7697101 10.9308669,31.7697101 10.2057635,30.7869473 C7.067894,26.5339716 -0.000272937325,16.4076688 -0.000272937325,11.4759698 C-0.000272937325,5.13764107 5.22738664,0.00026827012 11.6759858,0.00026827012 C18.1236753,0.00026827012 23.3513348,5.13764107 23.3513348,11.4759698 L23.3513348,11.4759698 Z" id="Stroke-1"></path>
                <path d="M17.0996144,11.1289177 C17.0996144,14.0736294 14.671382,16.4603392 11.67544,16.4603392 C8.68040772,16.4603392 6.25126552,14.0736294 6.25126552,11.1289177 C6.25126552,8.18420598 8.68040772,5.79749615 11.67544,5.79749615 C14.671382,5.79749615 17.0996144,8.18420598 17.0996144,11.1289177 L17.0996144,11.1289177 Z" id="Stroke-3"></path>
            </g>
        </g>
    </g>
</svg>