<?xml version="1.0" encoding="UTF-8"?>
<svg width="50px" height="50px" viewBox="0 0 50 50" version="1.1" xmlns="http://www.w3.org/2000/svg" xmlns:xlink="http://www.w3.org/1999/xlink">
    <!-- Generator: Sketch 40.1 (33804) - http://www.bohemiancoding.com/sketch -->
    <title>Location</title>
    <desc>Created with Sketch.</desc>
    <defs></defs>
    <g id="Page-1" stroke="none" stroke-width="1" fill="none" fill-rule="evenodd">
        <g id="Location">
            <circle id="Oval-2" fill-opacity="0.5" fill="#24B47E" cx="25" cy="25" r="25"></circle>
            <g id="Page-1" transform="translate(17.105263, 14.473684)" stroke="#659784" stroke-width="1.10526316">
                <path d="M15.5675566,7.65064652 C15.5675566,10.9384459 10.8554453,17.6893144 8.76413883,20.5246315 C8.28012997,21.1798068 7.28724463,21.1798068 6.8038423,20.5246315 C4.71192933,17.6893144 -0.000181958217,10.9384459 -0.000181958217,7.65064652 C-0.000181958217,3.42509405 3.48492442,0.000178846747 7.78399057,0.000178846747 C12.0824502,0.000178846747 15.5675566,3.42509405 15.5675566,7.65064652 L15.5675566,7.65064652 Z" id="Stroke-1"></path>
                <path d="M11.3997429,7.41927845 C11.3997429,9.38241957 9.78092134,10.9735595 7.78362665,10.9735595 C5.78693848,10.9735595 4.16751035,9.38241957 4.16751035,7.41927845 C4.16751035,5.45613732 5.78693848,3.86499743 7.78362665,3.86499743 C9.78092134,3.86499743 11.3997429,5.45613732 11.3997429,7.41927845 L11.3997429,7.41927845 Z" id="Stroke-3"></path>
            </g>
        </g>
    </g>
</svg>