<?xml version="1.0" encoding="UTF-8"?>
<svg width="319px" height="165px" viewBox="0 0 319 165" version="1.1" xmlns="http://www.w3.org/2000/svg" xmlns:xlink="http://www.w3.org/1999/xlink">
    <!-- Generator: Sketch 46 (44423) - http://www.bohemiancoding.com/sketch -->
    <title>Group</title>
    <desc>Created with Sketch.</desc>
    <defs></defs>
    <g id="Page-1" stroke="none" stroke-width="1" fill="none" fill-rule="evenodd">
        <g id="Artboard" transform="translate(-11.000000, -21.000000)">
            <g id="Group" transform="translate(7.000000, 15.000000)">
                <path d="M95.9425533,66.7730248 L95.9425533,68.1294962 C95.9623757,68.1209308 95.984174,68.1161819 96.0070284,68.1161819 L96.6011563,68.1161819 L96.6011563,66.7863392 L96.8253079,66.7863392 C96.9157242,66.7863392 96.9897698,66.7115975 96.9897698,66.6203313 C96.9897698,66.5288108 96.9157242,66.4540691 96.8253079,66.4540691 L96.6011563,66.4540691 L96.6011563,66.2323863 L96.6011563,66.4540691 L96.0070284,66.4540691 C95.984174,66.4540691 95.9623757,66.458818 95.9425533,66.4673875 L95.9425533,66.2219631 C95.9425533,66.0826487 95.8176328,65.9776544 95.6821344,66.0040937 C94.7895573,66.1767114 92.7301323,66.5778759 91.7242202,66.5542332 C90.6266325,66.5288108 88.901672,67.003446 88.1458527,67.4386765 C88.0468734,67.4958767 88.0884296,67.6481566 88.2022684,67.6456143 C89.0621042,67.6265476 90.8648881,68.2359211 91.8889339,68.6042909 C93.1540057,69.0590966 95.0393983,69.0158786 95.7652468,68.8755473 C95.8685077,68.8554636 95.9425533,68.7644516 95.9425533,68.657932 L95.9425533,68.4351335 C95.9623757,68.443703 95.984174,68.4484519 96.0070284,68.4484519 L96.6011563,68.4484519 L96.6011563,102.880727 L89.6771361,102.880727 C89.6227352,102.880727 89.5695937,102.895981 89.5232522,102.924962 L88.7256248,103.422223 C88.683313,103.448662 88.6483051,103.485525 88.6238751,103.52976 L87.2376606,106.038436 C87.1840153,106.124872 87.090325,106.177242 86.9893308,106.177242 L79.6444596,106.177242 C79.565125,106.177242 79.4895682,106.209274 79.4344118,106.266983 C79.3001727,106.40706 79.0553688,106.679334 79.0102866,106.842037 C78.9395151,107.096006 79.2571053,107.867065 79.2571053,107.867065 L80.506562,109.862465 C80.5602073,109.948138 80.6536458,110 80.7541363,110 L105.092727,110 C105.150906,110 105.207573,109.982713 105.25593,109.949664 C105.57629,109.731794 106.661033,108.827776 107.280599,108.248401 C107.867171,107.700041 110.395803,105.207634 110.395803,105.207634 L110.395803,105.198482 C110.395803,105.035271 110.264838,104.903075 110.103147,104.903075 L107.979396,104.903075 L109.817044,101.578001 C104.962001,101.671731 98.1059384,101.628487 98.3321613,100.905157 C98.4369333,100.570599 98.79205,69.7462625 97.8891469,68.4392999 C97.5944756,68.0132214 98.9829567,68.3007481 99.3693036,68.392777 C100.425083,68.644204 115.911697,100.984983 114.491231,101.396825 C114.331158,101.443226 112.34545,101.529188 109.817044,101.578001 L107.979396,104.903075 L99.4740756,104.903075 C99.4030522,104.903075 99.3342956,104.876889 99.2809022,104.82935 L97.1688393,102.954452 C97.1154458,102.906912 97.0466892,102.880727 96.9756659,102.880727 L96.6011563,102.880727 L96.6011563,68.4484519 L96.8253079,68.4484519 C96.9157242,68.4484519 96.9897698,68.3737102 96.9897698,68.2821898 C96.9897698,68.1909236 96.9157242,68.1161819 96.8253079,68.1161819 L96.6011563,68.1161819 L96.6011563,66.7863392 L96.0070284,66.7863392 C95.984174,66.7863392 95.9623757,66.7815902 95.9425533,66.7730248 Z M81.3611088,101.63427 L83.282265,101.412587 C83.282265,101.412587 87.7660541,94.6372783 91.3270436,86.9925256 C94.212052,80.7993887 96.3006923,73.9523891 96.4160422,70.3322475 C96.6741944,62.2433665 96.4913471,101.63427 96.4913471,101.63427 L81.3611088,101.63427 Z M82.9843196,101.994504 L80.9770287,106.177242 L82.9843196,101.994504 Z M151.086385,108.934804 L151.086385,93.9864663 L135.521695,93.9864663 L135.521695,108.934804 L128.570726,108.934804 L128.570726,72.8859218 L135.521695,72.8859218 L135.521695,87.3766572 L151.086385,87.3766572 L151.086385,72.8859218 L158.088228,72.8859218 L158.088228,108.934804 L151.086385,108.934804 Z M171.687435,90.9357852 C171.687435,88.0208594 172.191147,85.4026123 173.19857,83.0802813 C174.205993,80.7589672 175.548637,78.7839054 177.228263,77.1568754 C178.907134,75.5298455 180.854987,74.2841507 183.071318,73.419791 C185.287649,72.5554314 187.604723,72.1232516 190.022539,72.1232516 C192.440355,72.1232516 194.765487,72.5554314 196.998945,73.419791 C199.231899,74.2841507 201.187811,75.5298455 202.867185,77.1568754 C204.546056,78.7839054 205.889455,80.7589672 206.896879,83.0802813 C207.904302,85.4026123 208.408013,88.0208594 208.408013,90.9357852 C208.408013,93.8514737 207.904302,96.4613314 206.896879,98.7658667 C205.889455,101.071419 204.546056,103.03682 202.867185,104.66385 C201.187811,106.291134 199.231899,107.536575 196.998945,108.400935 C194.765487,109.265294 192.440355,109.697474 190.022539,109.697474 C187.604723,109.697474 185.287649,109.265294 183.071318,108.400935 C180.854987,107.536575 178.907134,106.291134 177.228263,104.66385 C175.548637,103.03682 174.205993,101.071419 173.19857,98.7658667 C172.191147,96.4613314 171.687435,93.8514737 171.687435,90.9357852 Z M216.014311,72.8859218 L224.17444,72.8859218 L232.183455,87.1732785 L240.19247,72.8859218 L248,72.8859218 L235.407209,93.7830876 L235.407209,108.934804 L228.455988,108.934804 L228.455988,93.7830876 L216.014311,72.8859218 Z M178.890512,90.8849405 C178.890512,92.9187279 179.209361,94.690411 179.847564,96.1982101 C180.485011,97.7070262 181.333513,98.9524667 182.391307,99.9355487 C183.449102,100.918885 184.640632,101.656133 185.96766,102.147038 C187.293933,102.638706 188.645139,102.884286 190.022539,102.884286 C191.398931,102.884286 192.759204,102.638706 194.102603,102.147038 C195.445246,101.656133 196.646347,100.918885 197.704141,99.9355487 C198.761936,98.9524667 199.609682,97.7070262 200.247885,96.1982101 C200.885332,94.690411 201.204937,92.9187279 201.204937,90.8849405 C201.204937,88.8511531 200.885332,87.0802327 200.247885,85.5716709 C199.609682,84.0638717 198.761936,82.8181769 197.704141,81.8345865 C196.646347,80.8517587 195.445246,80.1145108 194.102603,79.6228427 C192.759204,79.1319372 191.398931,78.8855947 190.022539,78.8855947 C188.645139,78.8855947 187.293933,79.1319372 185.96766,79.6228427 C184.640632,80.1145108 183.449102,80.8517587 182.391307,81.8345865 C181.333513,82.8181769 180.485011,84.0638717 179.847564,85.5716709 C179.209361,87.0802327 178.890512,88.8511531 178.890512,90.8849405 Z" id="Combined-Shape" fill="#4B5254"></path>
                <path d="M162,249.5 C97.6588266,249.5 45.5,197.341173 45.5,133 C45.5,68.6588266 97.6588266,16.5 162,16.5 C226.341173,16.5 278.5,68.6588266 278.5,133 C278.5,197.341173 226.341173,249.5 162,249.5 Z M162,244.5 C223.57975,244.5 273.5,194.57975 273.5,133 C273.5,71.4202504 223.57975,21.5 162,21.5 C100.42025,21.5 50.5,71.4202504 50.5,133 C50.5,194.57975 100.42025,244.5 162,244.5 Z" id="Oval-5" fill-rule="nonzero"></path>
                <text id="TWENTY-FIVE" font-family="Circular-Bold, Circular" font-size="14" font-weight="bold" letter-spacing="7" fill="#4B5254">
                    <tspan x="125.89" y="14">TWENTY-FIV</tspan>
                    <tspan x="281.962" y="14">E</tspan>
                </text>
                <path d="M0.645013214,99.4049986 C114.555481,195.3076 222.86421,195.3076 325.187884,99.3695176 L323.819929,97.9105117 C222.252977,193.139096 115.085144,193.139096 1.93311179,97.8750307 L0.645013214,99.4049986 Z" id="Path" fill-rule="nonzero"></path>
                <text id="AHOY" font-family="Circular-Bold, Circular" font-size="14" font-weight="bold" letter-spacing="14" fill="#4B5254">
                    <tspan x="109.476" y="149">AHO</tspan>
                    <tspan x="183.354" y="149">Y</tspan>
                </text>
                <path d="M49.6140351,108.5 L6.38596491,108.5" id="Line" stroke="#4B5254" stroke-width="3" stroke-linecap="round"></path>
                <path d="M320.614035,108.5 L277.385965,108.5" id="Line" stroke="#4B5254" stroke-width="3" stroke-linecap="round"></path>
                <path d="M320.614035,75.5 L277.385965,75.5" id="Line" stroke="#4B5254" stroke-width="3" stroke-linecap="round"></path>
                <text id="EST." font-family="Circular-Bold, Circular" font-size="14" font-weight="bold" fill="#4B5254">
                    <tspan x="11.486" y="98">EST.</tspan>
                </text>
                <text id="2014" font-family="Circular-Bold, Circular" font-size="14" font-weight="bold" fill="#4B5254">
                    <tspan x="286.457" y="98">2014</tspan>
                </text>
                <path d="M49.6140351,75.5 L6.38596491,75.5" id="Line" stroke="#4B5254" stroke-width="3" stroke-linecap="round"></path>
            </g>
        </g>
    </g>
</svg>